<?xml version="1.0" encoding="UTF-8" standalone="no"?>
<!DOCTYPE svg PUBLIC "-//W3C//DTD SVG 1.1//EN"
 "http://www.w3.org/Graphics/SVG/1.1/DTD/svg11.dtd">
<!-- Generated by graphviz version 9.0.0 (0)
 -->
<!-- Title: imports Pages: 1 -->
<svg width="1227pt" height="1352pt"
 viewBox="0.00 0.00 1226.97 1352.27" xmlns="http://www.w3.org/2000/svg" xmlns:xlink="http://www.w3.org/1999/xlink">
<g id="graph0" class="graph" transform="scale(1 1) rotate(0) translate(4 1348.27)">
<title>imports</title>
<polygon fill="white" stroke="none" points="-4,4 -4,-1348.27 1222.97,-1348.27 1222.97,4 -4,4"/>
<!-- combat.battle_sim -->
<g id="node1" class="node">
<title>combat.battle_sim</title>
<polygon fill="none" stroke="black" points="243.73,-1056 124.7,-1056 124.7,-1020 243.73,-1020 243.73,-1056"/>
<text text-anchor="middle" x="184.22" y="-1033.8" font-family="Times New Roman,serif" font-size="14.00">combat.battle_sim</text>
</g>
<!-- combat.enums -->
<g id="node2" class="node">
<title>combat.enums</title>
<polygon fill="none" stroke="black" points="1218.97,-614 1121.72,-614 1121.72,-578 1218.97,-578 1218.97,-614"/>
<text text-anchor="middle" x="1170.35" y="-591.8" font-family="Times New Roman,serif" font-size="14.00">combat.enums</text>
</g>
<!-- combat.battle_sim&#45;&gt;combat.enums -->
<g id="edge1" class="edge">
<title>combat.battle_sim&#45;&gt;combat.enums</title>
<path fill="none" stroke="black" d="M187.14,-1056.48C192.77,-1100.91 213.24,-1214.47 279.73,-1275 360.2,-1348.26 405.84,-1344 514.66,-1344 514.66,-1344 514.66,-1344 869.46,-1344 1011.72,-1344 1032.03,-1239.75 1085.72,-1108 1156.19,-935.05 1167.37,-706.36 1169.07,-625.7"/>
<polygon fill="black" stroke="black" points="1172.56,-626.05 1169.24,-615.99 1165.56,-625.93 1172.56,-626.05"/>
</g>
<!-- combat.initiative -->
<g id="node3" class="node">
<title>combat.initiative</title>
<polygon fill="none" stroke="black" points="570.89,-1240 460.42,-1240 460.42,-1204 570.89,-1204 570.89,-1240"/>
<text text-anchor="middle" x="515.66" y="-1217.8" font-family="Times New Roman,serif" font-size="14.00">combat.initiative</text>
</g>
<!-- combat.battle_sim&#45;&gt;combat.initiative -->
<g id="edge2" class="edge">
<title>combat.battle_sim&#45;&gt;combat.initiative</title>
<path fill="none" stroke="black" d="M215.26,-1056.26C263.78,-1085.55 362.66,-1144.34 448.76,-1190 454.09,-1192.83 459.72,-1195.71 465.34,-1198.53"/>
<polygon fill="black" stroke="black" points="463.53,-1201.54 474.04,-1202.83 466.63,-1195.26 463.53,-1201.54"/>
</g>
<!-- combat.life_check -->
<g id="node4" class="node">
<title>combat.life_check</title>
<polygon fill="none" stroke="black" points="750.78,-422 631.78,-422 631.78,-386 750.78,-386 750.78,-422"/>
<text text-anchor="middle" x="691.28" y="-399.8" font-family="Times New Roman,serif" font-size="14.00">combat.life_check</text>
</g>
<!-- combat.battle_sim&#45;&gt;combat.life_check -->
<g id="edge3" class="edge">
<title>combat.battle_sim&#45;&gt;combat.life_check</title>
<path fill="none" stroke="black" d="M187.1,-1019.66C195.37,-941.84 230.19,-639.24 279.73,-559 329.66,-478.13 360.46,-463.18 448.76,-428 503.5,-406.19 570.52,-401.04 620.06,-400.87"/>
<polygon fill="black" stroke="black" points="619.77,-404.37 629.79,-400.9 619.8,-397.37 619.77,-404.37"/>
</g>
<!-- combat.magic_damage -->
<g id="node5" class="node">
<title>combat.magic_damage</title>
<polygon fill="none" stroke="black" points="764,-552 618.56,-552 618.56,-516 764,-516 764,-552"/>
<text text-anchor="middle" x="691.28" y="-529.8" font-family="Times New Roman,serif" font-size="14.00">combat.magic_damage</text>
</g>
<!-- combat.battle_sim&#45;&gt;combat.magic_damage -->
<g id="edge4" class="edge">
<title>combat.battle_sim&#45;&gt;combat.magic_damage</title>
<path fill="none" stroke="black" d="M185.99,-1019.58C189.13,-963.77 204.68,-793.36 279.73,-680 332.2,-600.75 359.83,-582.54 448.76,-549 498.98,-530.06 559.22,-526.29 606.98,-527.26"/>
<polygon fill="black" stroke="black" points="606.61,-530.75 616.71,-527.54 606.81,-523.75 606.61,-530.75"/>
</g>
<!-- combat.models -->
<g id="node6" class="node">
<title>combat.models</title>
<polygon fill="none" stroke="black" points="1079.88,-793 978.74,-793 978.74,-757 1079.88,-757 1079.88,-793"/>
<text text-anchor="middle" x="1029.31" y="-770.8" font-family="Times New Roman,serif" font-size="14.00">combat.models</text>
</g>
<!-- combat.battle_sim&#45;&gt;combat.models -->
<g id="edge5" class="edge">
<title>combat.battle_sim&#45;&gt;combat.models</title>
<path fill="none" stroke="black" d="M244.1,-1046.77C302.36,-1056.39 386.51,-1073.14 412.76,-1093 438.78,-1112.69 420.63,-1140.44 448.76,-1157 542.55,-1212.22 858.86,-1192.86 936.91,-1117 982.2,-1072.97 1013.69,-879.15 1024.34,-804.47"/>
<polygon fill="black" stroke="black" points="1027.79,-805.05 1025.71,-794.66 1020.86,-804.07 1027.79,-805.05"/>
</g>
<!-- combat.runtime_state -->
<g id="node7" class="node">
<title>combat.runtime_state</title>
<polygon fill="none" stroke="black" points="759.74,-1034 622.83,-1034 622.83,-998 759.74,-998 759.74,-1034"/>
<text text-anchor="middle" x="691.28" y="-1011.8" font-family="Times New Roman,serif" font-size="14.00">combat.runtime_state</text>
</g>
<!-- combat.battle_sim&#45;&gt;combat.runtime_state -->
<g id="edge6" class="edge">
<title>combat.battle_sim&#45;&gt;combat.runtime_state</title>
<path fill="none" stroke="black" d="M244.14,-1035.43C334.97,-1031.48 509.31,-1023.88 611.08,-1019.45"/>
<polygon fill="black" stroke="black" points="611.16,-1022.95 621,-1019.02 610.85,-1015.96 611.16,-1022.95"/>
</g>
<!-- combat.spell_repo -->
<g id="node8" class="node">
<title>combat.spell_repo</title>
<polygon fill="none" stroke="black" points="750.79,-980 631.77,-980 631.77,-944 750.79,-944 750.79,-980"/>
<text text-anchor="middle" x="691.28" y="-957.8" font-family="Times New Roman,serif" font-size="14.00">combat.spell_repo</text>
</g>
<!-- combat.battle_sim&#45;&gt;combat.spell_repo -->
<g id="edge7" class="edge">
<title>combat.battle_sim&#45;&gt;combat.spell_repo</title>
<path fill="none" stroke="black" d="M244.14,-1029.13C337.73,-1015.05 519.96,-987.63 620.14,-972.56"/>
<polygon fill="black" stroke="black" points="620.48,-976.04 629.84,-971.09 619.44,-969.12 620.48,-976.04"/>
</g>
<!-- combat.start_of_turn -->
<g id="node9" class="node">
<title>combat.start_of_turn</title>
<polygon fill="none" stroke="black" points="412.76,-1266 279.73,-1266 279.73,-1230 412.76,-1230 412.76,-1266"/>
<text text-anchor="middle" x="346.24" y="-1243.8" font-family="Times New Roman,serif" font-size="14.00">combat.start_of_turn</text>
</g>
<!-- combat.battle_sim&#45;&gt;combat.start_of_turn -->
<g id="edge8" class="edge">
<title>combat.battle_sim&#45;&gt;combat.start_of_turn</title>
<path fill="none" stroke="black" d="M192.02,-1056.26C205,-1089.25 235.97,-1159.64 279.73,-1206 285.73,-1212.36 292.88,-1218.18 300.22,-1223.34"/>
<polygon fill="black" stroke="black" points="298,-1226.07 308.28,-1228.67 301.87,-1220.23 298,-1226.07"/>
</g>
<!-- combat.turn_logic -->
<g id="node10" class="node">
<title>combat.turn_logic</title>
<polygon fill="none" stroke="black" points="405.37,-725 287.12,-725 287.12,-689 405.37,-689 405.37,-725"/>
<text text-anchor="middle" x="346.24" y="-702.8" font-family="Times New Roman,serif" font-size="14.00">combat.turn_logic</text>
</g>
<!-- combat.battle_sim&#45;&gt;combat.turn_logic -->
<g id="edge9" class="edge">
<title>combat.battle_sim&#45;&gt;combat.turn_logic</title>
<path fill="none" stroke="black" d="M194.05,-1019.73C220.55,-964.91 299.54,-801.53 331.55,-735.33"/>
<polygon fill="black" stroke="black" points="334.58,-737.1 335.78,-726.57 328.28,-734.05 334.58,-737.1"/>
</g>
<!-- combat.life_check&#45;&gt;combat.enums -->
<g id="edge37" class="edge">
<title>combat.life_check&#45;&gt;combat.enums</title>
<path fill="none" stroke="black" d="M746.46,-385.61C796.52,-371.32 872.64,-356.47 936.91,-373 1010.04,-391.82 1031.48,-402.46 1085.72,-455 1119.4,-487.63 1144.36,-536.67 1157.88,-567.47"/>
<polygon fill="black" stroke="black" points="1154.61,-568.71 1161.75,-576.54 1161.05,-565.97 1154.61,-568.71"/>
</g>
<!-- combat.life_check&#45;&gt;combat.models -->
<g id="edge38" class="edge">
<title>combat.life_check&#45;&gt;combat.models</title>
<path fill="none" stroke="black" d="M751.12,-386.84C805.34,-374.89 885.02,-367.62 936.91,-409 990.11,-451.44 1017.17,-666.19 1025.47,-745.51"/>
<polygon fill="black" stroke="black" points="1021.95,-745.51 1026.45,-755.11 1028.92,-744.8 1021.95,-745.51"/>
</g>
<!-- combat.state_view -->
<g id="node16" class="node">
<title>combat.state_view</title>
<polygon fill="none" stroke="black" points="928.74,-286 808.17,-286 808.17,-250 928.74,-250 928.74,-286"/>
<text text-anchor="middle" x="868.46" y="-263.8" font-family="Times New Roman,serif" font-size="14.00">combat.state_view</text>
</g>
<!-- combat.life_check&#45;&gt;combat.state_view -->
<g id="edge39" class="edge">
<title>combat.life_check&#45;&gt;combat.state_view</title>
<path fill="none" stroke="black" d="M750.96,-386.49C755.66,-383.76 760.1,-380.61 764,-377 791.73,-351.34 773.37,-326.79 800,-300 802.61,-297.38 805.47,-294.95 808.5,-292.69"/>
<polygon fill="black" stroke="black" points="810.29,-295.7 816.73,-287.28 806.45,-289.85 810.29,-295.7"/>
</g>
<!-- combat.magic_damage&#45;&gt;combat.enums -->
<g id="edge50" class="edge">
<title>combat.magic_damage&#45;&gt;combat.enums</title>
<path fill="none" stroke="black" d="M764.41,-524.71C844.69,-516.89 977.38,-511.57 1085.72,-544 1104.39,-549.59 1123.02,-560.52 1137.94,-570.92"/>
<polygon fill="black" stroke="black" points="1135.8,-573.69 1145.95,-576.73 1139.91,-568.02 1135.8,-573.69"/>
</g>
<!-- combat.magic_damage&#45;&gt;combat.models -->
<g id="edge52" class="edge">
<title>combat.magic_damage&#45;&gt;combat.models</title>
<path fill="none" stroke="black" d="M743.88,-552.44C796.21,-572.81 877.7,-609.3 936.91,-658 968.01,-683.59 995.2,-721.53 1011.66,-747.21"/>
<polygon fill="black" stroke="black" points="1008.55,-748.84 1016.83,-755.45 1014.48,-745.12 1008.55,-748.84"/>
</g>
<!-- combat.elements -->
<g id="node12" class="node">
<title>combat.elements</title>
<polygon fill="none" stroke="black" points="923.69,-774 813.22,-774 813.22,-738 923.69,-738 923.69,-774"/>
<text text-anchor="middle" x="868.46" y="-751.8" font-family="Times New Roman,serif" font-size="14.00">combat.elements</text>
</g>
<!-- combat.magic_damage&#45;&gt;combat.elements -->
<g id="edge49" class="edge">
<title>combat.magic_damage&#45;&gt;combat.elements</title>
<path fill="none" stroke="black" d="M706.62,-552.17C737.35,-591.11 809.71,-682.82 845.97,-728.77"/>
<polygon fill="black" stroke="black" points="843.04,-730.71 851.98,-736.39 848.54,-726.38 843.04,-730.71"/>
</g>
<!-- combat.constants -->
<g id="node13" class="node">
<title>combat.constants</title>
<polygon fill="none" stroke="black" points="1085.72,-286 972.91,-286 972.91,-250 1085.72,-250 1085.72,-286"/>
<text text-anchor="middle" x="1029.31" y="-263.8" font-family="Times New Roman,serif" font-size="14.00">combat.constants</text>
</g>
<!-- combat.magic_damage&#45;&gt;combat.constants -->
<g id="edge48" class="edge">
<title>combat.magic_damage&#45;&gt;combat.constants</title>
<path fill="none" stroke="black" d="M761.05,-515.54C830.96,-496.54 929.99,-468.91 936.91,-463 988.2,-419.13 1012.61,-340.16 1022.54,-297.41"/>
<polygon fill="black" stroke="black" points="1025.91,-298.37 1024.64,-287.85 1019.07,-296.87 1025.91,-298.37"/>
</g>
<!-- combat.logging -->
<g id="node23" class="node">
<title>combat.logging</title>
<polygon fill="none" stroke="black" points="920.2,-454 816.71,-454 816.71,-418 920.2,-418 920.2,-454"/>
<text text-anchor="middle" x="868.46" y="-431.8" font-family="Times New Roman,serif" font-size="14.00">combat.logging</text>
</g>
<!-- combat.magic_damage&#45;&gt;combat.logging -->
<g id="edge51" class="edge">
<title>combat.magic_damage&#45;&gt;combat.logging</title>
<path fill="none" stroke="black" d="M739.79,-515.54C748.12,-511.54 756.52,-506.99 764,-502 782.31,-489.79 781.84,-480.42 800,-468 804.32,-465.05 808.96,-462.23 813.7,-459.58"/>
<polygon fill="black" stroke="black" points="814.99,-462.86 822.19,-455.08 811.71,-456.67 814.99,-462.86"/>
</g>
<!-- combat.data_loader -->
<g id="node14" class="node">
<title>combat.data_loader</title>
<polygon fill="none" stroke="black" points="931.46,-1034 805.45,-1034 805.45,-998 931.46,-998 931.46,-1034"/>
<text text-anchor="middle" x="868.46" y="-1011.8" font-family="Times New Roman,serif" font-size="14.00">combat.data_loader</text>
</g>
<!-- combat.runtime_state&#45;&gt;combat.data_loader -->
<g id="edge65" class="edge">
<title>combat.runtime_state&#45;&gt;combat.data_loader</title>
<path fill="none" stroke="black" d="M760.01,-1016C771.01,-1016 782.46,-1016 793.6,-1016"/>
<polygon fill="black" stroke="black" points="793.56,-1019.5 803.56,-1016 793.56,-1012.5 793.56,-1019.5"/>
</g>
<!-- combat.spell_repo&#45;&gt;combat.models -->
<g id="edge67" class="edge">
<title>combat.spell_repo&#45;&gt;combat.models</title>
<path fill="none" stroke="black" d="M751.09,-973.25C803.98,-980.08 881.64,-981.63 936.91,-946 987.01,-913.7 1011.54,-844.25 1021.89,-804.51"/>
<polygon fill="black" stroke="black" points="1025.27,-805.46 1024.25,-794.91 1018.47,-803.79 1025.27,-805.46"/>
</g>
<!-- combat.spell_repo&#45;&gt;combat.elements -->
<g id="edge66" class="edge">
<title>combat.spell_repo&#45;&gt;combat.elements</title>
<path fill="none" stroke="black" d="M707.83,-943.72C738.8,-907.3 808.32,-825.54 844.54,-782.95"/>
<polygon fill="black" stroke="black" points="847.15,-785.28 850.96,-775.39 841.82,-780.74 847.15,-785.28"/>
</g>
<!-- combat.start_of_turn&#45;&gt;combat.enums -->
<g id="edge68" class="edge">
<title>combat.start_of_turn&#45;&gt;combat.enums</title>
<path fill="none" stroke="black" d="M381.43,-1266.41C400.65,-1275.83 425.4,-1286.45 448.76,-1292 553.36,-1316.87 582.76,-1306 690.28,-1306 690.28,-1306 690.28,-1306 869.46,-1306 911.09,-1306 910.92,-1273.53 936.91,-1241 1016.65,-1141.16 1038.88,-1113.89 1085.72,-995 1137.74,-862.96 1159.57,-692.97 1166.59,-625.49"/>
<polygon fill="black" stroke="black" points="1170.07,-625.92 1167.59,-615.62 1163.1,-625.22 1170.07,-625.92"/>
</g>
<!-- combat.start_of_turn&#45;&gt;combat.initiative -->
<g id="edge69" class="edge">
<title>combat.start_of_turn&#45;&gt;combat.initiative</title>
<path fill="none" stroke="black" d="M412.93,-1237.8C424.73,-1235.97 437.03,-1234.06 448.84,-1232.22"/>
<polygon fill="black" stroke="black" points="449.13,-1235.72 458.48,-1230.73 448.06,-1228.8 449.13,-1235.72"/>
</g>
<!-- combat.start_of_turn&#45;&gt;combat.models -->
<g id="edge70" class="edge">
<title>combat.start_of_turn&#45;&gt;combat.models</title>
<path fill="none" stroke="black" d="M413,-1264.54C534.29,-1290.71 793.87,-1325.81 936.91,-1190 993.18,-1136.57 1018.69,-890.69 1026,-804.75"/>
<polygon fill="black" stroke="black" points="1029.47,-805.26 1026.8,-795.01 1022.49,-804.68 1029.47,-805.26"/>
</g>
<!-- combat.turn_logic&#45;&gt;combat.enums -->
<g id="edge75" class="edge">
<title>combat.turn_logic&#45;&gt;combat.enums</title>
<path fill="none" stroke="black" d="M350.69,-688.58C365.86,-607.82 427.02,-287.2 448.76,-247 521.79,-111.94 536.74,0 690.28,0 690.28,0 690.28,0 869.46,0 988.23,0 1022.07,-56.72 1085.72,-157 1129.55,-226.06 1157.91,-479.18 1166.55,-566.3"/>
<polygon fill="black" stroke="black" points="1163.06,-566.57 1167.51,-576.18 1170.03,-565.89 1163.06,-566.57"/>
</g>
<!-- combat.turn_logic&#45;&gt;combat.life_check -->
<g id="edge78" class="edge">
<title>combat.turn_logic&#45;&gt;combat.life_check</title>
<path fill="none" stroke="black" d="M349.84,-688.78C357.07,-644.99 381.48,-533.13 448.76,-474 461.96,-462.4 554.12,-437.69 620.68,-420.96"/>
<polygon fill="black" stroke="black" points="621.22,-424.43 630.07,-418.61 619.52,-417.64 621.22,-424.43"/>
</g>
<!-- combat.turn_logic&#45;&gt;combat.magic_damage -->
<g id="edge81" class="edge">
<title>combat.turn_logic&#45;&gt;combat.magic_damage</title>
<path fill="none" stroke="black" d="M358.13,-688.53C374.44,-662.57 407.71,-615.7 448.76,-591 475.28,-575.03 548.16,-559.03 606.98,-548.06"/>
<polygon fill="black" stroke="black" points="607.47,-551.53 616.67,-546.28 606.21,-544.64 607.47,-551.53"/>
</g>
<!-- combat.turn_logic&#45;&gt;combat.models -->
<g id="edge82" class="edge">
<title>combat.turn_logic&#45;&gt;combat.models</title>
<path fill="none" stroke="black" d="M359.41,-725.32C376.51,-749.64 409.93,-792.26 448.76,-816 501.5,-848.25 528.81,-823.46 582.56,-854 601.69,-864.87 598.71,-878.49 618.56,-888 691.97,-923.18 718.79,-907.43 800,-913 860.71,-917.16 883.3,-941.79 936.91,-913 979.89,-889.91 1006.07,-836.74 1018.82,-803.55"/>
<polygon fill="black" stroke="black" points="1021.96,-805.14 1022.12,-794.55 1015.39,-802.74 1021.96,-805.14"/>
</g>
<!-- combat.turn_logic&#45;&gt;combat.runtime_state -->
<g id="edge84" class="edge">
<title>combat.turn_logic&#45;&gt;combat.runtime_state</title>
<path fill="none" stroke="black" d="M353.46,-725.38C366.33,-761.21 398.93,-841.31 448.76,-892 509.68,-953.98 539.91,-952.02 618.56,-989 621.65,-990.45 624.84,-991.89 628.09,-993.29"/>
<polygon fill="black" stroke="black" points="626.57,-996.45 637.15,-997.07 629.27,-989.99 626.57,-996.45"/>
</g>
<!-- combat.turn_logic&#45;&gt;combat.spell_repo -->
<g id="edge85" class="edge">
<title>combat.turn_logic&#45;&gt;combat.spell_repo</title>
<path fill="none" stroke="black" d="M355.14,-725.08C369.45,-755.84 402.53,-818.46 448.76,-854 498.84,-892.51 527.2,-871.56 582.56,-902 600.32,-911.77 601.18,-919.57 618.56,-930 623.67,-933.07 629.14,-936.02 634.68,-938.81"/>
<polygon fill="black" stroke="black" points="632.79,-941.79 643.31,-942.99 635.83,-935.48 632.79,-941.79"/>
</g>
<!-- combat.turn_logic&#45;&gt;combat.elements -->
<g id="edge74" class="edge">
<title>combat.turn_logic&#45;&gt;combat.elements</title>
<path fill="none" stroke="black" d="M405.66,-712.5C503.29,-721.7 698.98,-740.13 801.45,-749.78"/>
<polygon fill="black" stroke="black" points="801.08,-753.26 811.36,-750.72 801.73,-746.29 801.08,-753.26"/>
</g>
<!-- combat.inventory -->
<g id="node19" class="node">
<title>combat.inventory</title>
<polygon fill="none" stroke="black" points="748.46,-368 634.1,-368 634.1,-332 748.46,-332 748.46,-368"/>
<text text-anchor="middle" x="691.28" y="-345.8" font-family="Times New Roman,serif" font-size="14.00">combat.inventory</text>
</g>
<!-- combat.turn_logic&#45;&gt;combat.inventory -->
<g id="edge76" class="edge">
<title>combat.turn_logic&#45;&gt;combat.inventory</title>
<path fill="none" stroke="black" d="M348.5,-688.75C352.89,-639.43 371.76,-502.23 448.76,-428 495.7,-382.75 569.07,-363.75 622.63,-355.77"/>
<polygon fill="black" stroke="black" points="622.82,-359.28 632.25,-354.44 621.86,-352.34 622.82,-359.28"/>
</g>
<!-- combat.item_effects -->
<g id="node21" class="node">
<title>combat.item_effects</title>
<polygon fill="none" stroke="black" points="756.23,-850 626.34,-850 626.34,-814 756.23,-814 756.23,-850"/>
<text text-anchor="middle" x="691.28" y="-827.8" font-family="Times New Roman,serif" font-size="14.00">combat.item_effects</text>
</g>
<!-- combat.turn_logic&#45;&gt;combat.item_effects -->
<g id="edge77" class="edge">
<title>combat.turn_logic&#45;&gt;combat.item_effects</title>
<path fill="none" stroke="black" d="M403.67,-725.43C451.53,-741.3 521.9,-765.19 582.56,-788 600.18,-794.62 619.24,-802.25 636.36,-809.28"/>
<polygon fill="black" stroke="black" points="634.76,-812.41 645.34,-812.99 637.43,-805.94 634.76,-812.41"/>
</g>
<!-- combat.status_effects -->
<g id="node22" class="node">
<title>combat.status_effects</title>
<polygon fill="none" stroke="black" points="936.91,-904 800,-904 800,-868 936.91,-868 936.91,-904"/>
<text text-anchor="middle" x="868.46" y="-881.8" font-family="Times New Roman,serif" font-size="14.00">combat.status_effects</text>
</g>
<!-- combat.turn_logic&#45;&gt;combat.status_effects -->
<g id="edge86" class="edge">
<title>combat.turn_logic&#45;&gt;combat.status_effects</title>
<path fill="none" stroke="black" d="M369.52,-725.2C389.38,-740.77 419.72,-762.98 448.76,-778 504.87,-807.03 528.47,-793.34 582.56,-826 601.14,-837.22 598.79,-850.05 618.56,-859 671.85,-883.12 737.89,-889.34 788.55,-889.82"/>
<polygon fill="black" stroke="black" points="788.25,-893.32 798.26,-889.83 788.26,-886.32 788.25,-893.32"/>
</g>
<!-- combat.turn_logic&#45;&gt;combat.logging -->
<g id="edge79" class="edge">
<title>combat.turn_logic&#45;&gt;combat.logging</title>
<path fill="none" stroke="black" d="M355.04,-688.66C369.43,-656.68 402.92,-590.18 448.76,-549 549.5,-458.5 715.37,-439.39 805.12,-436.02"/>
<polygon fill="black" stroke="black" points="805.07,-439.53 814.95,-435.72 804.85,-432.53 805.07,-439.53"/>
</g>
<!-- combat.magic_aoe -->
<g id="node24" class="node">
<title>combat.magic_aoe</title>
<polygon fill="none" stroke="black" points="576.33,-636 454.99,-636 454.99,-600 576.33,-600 576.33,-636"/>
<text text-anchor="middle" x="515.66" y="-613.8" font-family="Times New Roman,serif" font-size="14.00">combat.magic_aoe</text>
</g>
<!-- combat.turn_logic&#45;&gt;combat.magic_aoe -->
<g id="edge80" class="edge">
<title>combat.turn_logic&#45;&gt;combat.magic_aoe</title>
<path fill="none" stroke="black" d="M381.93,-688.56C407.52,-674.96 442.55,-656.33 470.19,-641.64"/>
<polygon fill="black" stroke="black" points="471.49,-644.91 478.68,-637.13 468.2,-638.73 471.49,-644.91"/>
</g>
<!-- combat.phys_damage -->
<g id="node25" class="node">
<title>combat.phys_damage</title>
<polygon fill="none" stroke="black" points="760.13,-682 622.44,-682 622.44,-646 760.13,-646 760.13,-682"/>
<text text-anchor="middle" x="691.28" y="-659.8" font-family="Times New Roman,serif" font-size="14.00">combat.phys_damage</text>
</g>
<!-- combat.turn_logic&#45;&gt;combat.phys_damage -->
<g id="edge83" class="edge">
<title>combat.turn_logic&#45;&gt;combat.phys_damage</title>
<path fill="none" stroke="black" d="M405.82,-699.66C462.3,-692.58 548.18,-681.81 610.81,-673.96"/>
<polygon fill="black" stroke="black" points="611.23,-677.44 620.72,-672.72 610.36,-670.49 611.23,-677.44"/>
</g>
<!-- combat.char_build -->
<g id="node11" class="node">
<title>combat.char_build</title>
<polygon fill="none" stroke="black" points="575.95,-1094 455.37,-1094 455.37,-1058 575.95,-1058 575.95,-1094"/>
<text text-anchor="middle" x="515.66" y="-1071.8" font-family="Times New Roman,serif" font-size="14.00">combat.char_build</text>
</g>
<!-- combat.char_build&#45;&gt;combat.enums -->
<g id="edge11" class="edge">
<title>combat.char_build&#45;&gt;combat.enums</title>
<path fill="none" stroke="black" d="M576.14,-1091.81C661.51,-1111.07 821.24,-1134.03 936.91,-1073 1109.44,-981.96 1155.58,-715.14 1166.38,-625.65"/>
<polygon fill="black" stroke="black" points="1169.83,-626.3 1167.48,-615.97 1162.87,-625.51 1169.83,-626.3"/>
</g>
<!-- combat.char_build&#45;&gt;combat.models -->
<g id="edge12" class="edge">
<title>combat.char_build&#45;&gt;combat.models</title>
<path fill="none" stroke="black" d="M576.32,-1079.1C678.72,-1083.18 882.21,-1085.47 936.91,-1043 1011.97,-984.72 1025.79,-861.63 1028.05,-804.85"/>
<polygon fill="black" stroke="black" points="1031.55,-805.09 1028.34,-794.99 1024.55,-804.88 1031.55,-805.09"/>
</g>
<!-- combat.char_build&#45;&gt;combat.runtime_state -->
<g id="edge13" class="edge">
<title>combat.char_build&#45;&gt;combat.runtime_state</title>
<path fill="none" stroke="black" d="M570.17,-1057.51C587.91,-1051.38 607.84,-1044.49 626.29,-1038.12"/>
<polygon fill="black" stroke="black" points="627.21,-1041.5 635.52,-1034.92 624.92,-1034.88 627.21,-1041.5"/>
</g>
<!-- combat.char_build&#45;&gt;combat.elements -->
<g id="edge10" class="edge">
<title>combat.char_build&#45;&gt;combat.elements</title>
<path fill="none" stroke="black" d="M517.67,-1057.76C521.46,-1008.59 538.97,-872.41 618.56,-805 645.66,-782.04 737.44,-768.56 801.62,-761.73"/>
<polygon fill="black" stroke="black" points="801.77,-765.23 811.36,-760.72 801.05,-758.27 801.77,-765.23"/>
</g>
<!-- combat.elements&#45;&gt;combat.enums -->
<g id="edge21" class="edge">
<title>combat.elements&#45;&gt;combat.enums</title>
<path fill="none" stroke="black" d="M909.09,-737.57C952.91,-716.89 1025.27,-681.79 1085.72,-648 1100.99,-639.46 1117.43,-629.43 1131.65,-620.48"/>
<polygon fill="black" stroke="black" points="1133.25,-623.6 1139.82,-615.29 1129.5,-617.69 1133.25,-623.6"/>
</g>
<!-- combat.elements&#45;&gt;combat.models -->
<g id="edge22" class="edge">
<title>combat.elements&#45;&gt;combat.models</title>
<path fill="none" stroke="black" d="M924.12,-762.54C938,-764.2 953.01,-765.99 967.18,-767.69"/>
<polygon fill="black" stroke="black" points="966.49,-771.13 976.84,-768.84 967.32,-764.18 966.49,-771.13"/>
</g>
<!-- combat.elements&#45;&gt;combat.constants -->
<g id="edge20" class="edge">
<title>combat.elements&#45;&gt;combat.constants</title>
<path fill="none" stroke="black" d="M875.39,-737.76C899.38,-664.08 989.24,-388.01 1018.81,-297.18"/>
<polygon fill="black" stroke="black" points="1022.11,-298.36 1021.87,-287.77 1015.45,-296.2 1022.11,-298.36"/>
</g>
<!-- combat.constants&#45;&gt;combat.enums -->
<g id="edge14" class="edge">
<title>combat.constants&#45;&gt;combat.enums</title>
<path fill="none" stroke="black" d="M1071.09,-286.5C1076.58,-290.34 1081.69,-294.83 1085.72,-300 1149.11,-381.48 1164.45,-508.69 1168.16,-566.1"/>
<polygon fill="black" stroke="black" points="1164.66,-566.27 1168.72,-576.06 1171.65,-565.88 1164.66,-566.27"/>
</g>
<!-- combat.data_loader&#45;&gt;combat.models -->
<g id="edge15" class="edge">
<title>combat.data_loader&#45;&gt;combat.models</title>
<path fill="none" stroke="black" d="M919.04,-997.67C925.57,-993.83 931.76,-989.3 936.91,-984 987.04,-932.31 1012.07,-848.61 1022.36,-804.45"/>
<polygon fill="black" stroke="black" points="1025.75,-805.35 1024.5,-794.83 1018.91,-803.83 1025.75,-805.35"/>
</g>
<!-- combat.debug_utils -->
<g id="node15" class="node">
<title>combat.debug_utils</title>
<polygon fill="none" stroke="black" points="409.26,-346 283.22,-346 283.22,-310 409.26,-310 409.26,-346"/>
<text text-anchor="middle" x="346.24" y="-323.8" font-family="Times New Roman,serif" font-size="14.00">combat.debug_utils</text>
</g>
<!-- combat.debug_utils&#45;&gt;combat.life_check -->
<g id="edge17" class="edge">
<title>combat.debug_utils&#45;&gt;combat.life_check</title>
<path fill="none" stroke="black" d="M409.37,-341.76C468.8,-354.93 558.32,-374.76 620.26,-388.49"/>
<polygon fill="black" stroke="black" points="619.49,-391.9 630.01,-390.65 621,-385.07 619.49,-391.9"/>
</g>
<!-- combat.debug_utils&#45;&gt;combat.models -->
<g id="edge18" class="edge">
<title>combat.debug_utils&#45;&gt;combat.models</title>
<path fill="none" stroke="black" d="M357.84,-309.69C373.79,-284.2 406.64,-239.1 448.76,-221 498.63,-199.57 897.49,-203.67 936.91,-241 1010.73,-310.92 1025.05,-643.64 1027.72,-745.38"/>
<polygon fill="black" stroke="black" points="1024.22,-745.18 1027.96,-755.09 1031.22,-745.01 1024.22,-745.18"/>
</g>
<!-- combat.debug_utils&#45;&gt;combat.char_build -->
<g id="edge16" class="edge">
<title>combat.debug_utils&#45;&gt;combat.char_build</title>
<path fill="none" stroke="black" d="M351.38,-346.49C373.77,-446.53 480.44,-923.11 508.1,-1046.68"/>
<polygon fill="black" stroke="black" points="504.66,-1047.35 510.26,-1056.35 511.49,-1045.82 504.66,-1047.35"/>
</g>
<!-- combat.debug_utils&#45;&gt;combat.state_view -->
<g id="edge19" class="edge">
<title>combat.debug_utils&#45;&gt;combat.state_view</title>
<path fill="none" stroke="black" d="M362.96,-309.59C381.23,-289.75 413.43,-259.37 448.76,-247 565.45,-206.15 711.64,-228.76 796.79,-248.6"/>
<polygon fill="black" stroke="black" points="795.87,-251.98 806.41,-250.89 797.5,-245.17 795.87,-251.98"/>
</g>
<!-- combat.state_view&#45;&gt;combat.models -->
<g id="edge71" class="edge">
<title>combat.state_view&#45;&gt;combat.models</title>
<path fill="none" stroke="black" d="M892.95,-286.35C907.81,-299.22 926.17,-317.71 936.91,-338 1010.88,-477.87 1025,-672.54 1027.68,-745.68"/>
<polygon fill="black" stroke="black" points="1024.17,-745.34 1027.99,-755.22 1031.17,-745.12 1024.17,-745.34"/>
</g>
<!-- combat.enemy_build -->
<g id="node17" class="node">
<title>combat.enemy_build</title>
<polygon fill="none" stroke="black" points="582.56,-1148 448.76,-1148 448.76,-1112 582.56,-1112 582.56,-1148"/>
<text text-anchor="middle" x="515.66" y="-1125.8" font-family="Times New Roman,serif" font-size="14.00">combat.enemy_build</text>
</g>
<!-- combat.enemy_build&#45;&gt;combat.models -->
<g id="edge23" class="edge">
<title>combat.enemy_build&#45;&gt;combat.models</title>
<path fill="none" stroke="black" d="M582.87,-1141.07C673.78,-1152.28 837.29,-1157.59 936.91,-1073 1017.95,-1004.18 1028.43,-865.48 1028.93,-804.69"/>
<polygon fill="black" stroke="black" points="1032.43,-804.79 1028.91,-794.8 1025.43,-804.8 1032.43,-804.79"/>
</g>
<!-- combat.enemy_build&#45;&gt;combat.runtime_state -->
<g id="edge24" class="edge">
<title>combat.enemy_build&#45;&gt;combat.runtime_state</title>
<path fill="none" stroke="black" d="M566.01,-1111.64C571.71,-1108.98 577.34,-1106.08 582.56,-1103 612.07,-1085.55 642.14,-1060.54 662.98,-1041.81"/>
<polygon fill="black" stroke="black" points="665.16,-1044.55 670.2,-1035.22 660.45,-1039.38 665.16,-1044.55"/>
</g>
<!-- combat.enemy_build&#45;&gt;combat.spell_repo -->
<g id="edge25" class="edge">
<title>combat.enemy_build&#45;&gt;combat.spell_repo</title>
<path fill="none" stroke="black" d="M572.34,-1111.71C576.08,-1109.16 579.55,-1106.28 582.56,-1103 618.54,-1063.9 582.02,-1027.57 618.56,-989 619.73,-987.76 620.97,-986.58 622.25,-985.45"/>
<polygon fill="black" stroke="black" points="624.19,-988.38 630.2,-979.66 620.06,-982.72 624.19,-988.38"/>
</g>
<!-- combat.input_ui -->
<g id="node18" class="node">
<title>combat.input_ui</title>
<polygon fill="none" stroke="black" points="569.35,-292 461.97,-292 461.97,-256 569.35,-256 569.35,-292"/>
<text text-anchor="middle" x="515.66" y="-269.8" font-family="Times New Roman,serif" font-size="14.00">combat.input_ui</text>
</g>
<!-- combat.input_ui&#45;&gt;combat.enums -->
<g id="edge27" class="edge">
<title>combat.input_ui&#45;&gt;combat.enums</title>
<path fill="none" stroke="black" d="M538.89,-255.73C558.75,-240.16 589.16,-218.13 618.56,-204 747.97,-141.79 798.79,-109.75 936.91,-149 1011.7,-170.25 1040.27,-177.91 1085.72,-241 1159.42,-343.33 1169.06,-501.3 1169.71,-566.41"/>
<polygon fill="black" stroke="black" points="1166.21,-566.29 1169.73,-576.28 1173.21,-566.27 1166.21,-566.29"/>
</g>
<!-- combat.input_ui&#45;&gt;combat.life_check -->
<g id="edge29" class="edge">
<title>combat.input_ui&#45;&gt;combat.life_check</title>
<path fill="none" stroke="black" d="M530.65,-292.39C548.74,-315.05 582.26,-353.46 618.56,-377 620.4,-378.19 622.3,-379.35 624.25,-380.46"/>
<polygon fill="black" stroke="black" points="622.46,-383.47 632.95,-384.98 625.69,-377.26 622.46,-383.47"/>
</g>
<!-- combat.input_ui&#45;&gt;combat.models -->
<g id="edge31" class="edge">
<title>combat.input_ui&#45;&gt;combat.models</title>
<path fill="none" stroke="black" d="M569.49,-279.26C670.84,-290.46 886.94,-320.05 936.91,-373 988.35,-427.52 1016.81,-661.97 1025.45,-745.39"/>
<polygon fill="black" stroke="black" points="1021.96,-745.68 1026.45,-755.28 1028.92,-744.98 1021.96,-745.68"/>
</g>
<!-- combat.input_ui&#45;&gt;combat.constants -->
<g id="edge26" class="edge">
<title>combat.input_ui&#45;&gt;combat.constants</title>
<path fill="none" stroke="black" d="M537.55,-255.73C557.24,-239.35 588.19,-215.68 618.56,-201 694.08,-164.48 716.93,-160.67 800,-149 860.26,-140.54 882.33,-122.1 936.91,-149 974.82,-167.69 1001.4,-210.5 1015.77,-239.34"/>
<polygon fill="black" stroke="black" points="1012.57,-240.75 1020.03,-248.26 1018.88,-237.73 1012.57,-240.75"/>
</g>
<!-- combat.input_ui&#45;&gt;combat.state_view -->
<g id="edge32" class="edge">
<title>combat.input_ui&#45;&gt;combat.state_view</title>
<path fill="none" stroke="black" d="M569.56,-273.1C630.08,-272.06 729.47,-270.36 796.63,-269.21"/>
<polygon fill="black" stroke="black" points="796.5,-272.71 806.44,-269.04 796.38,-265.72 796.5,-272.71"/>
</g>
<!-- combat.input_ui&#45;&gt;combat.inventory -->
<g id="edge28" class="edge">
<title>combat.input_ui&#45;&gt;combat.inventory</title>
<path fill="none" stroke="black" d="M558.69,-292.4C582.4,-302.78 612.25,-315.84 637.52,-326.9"/>
<polygon fill="black" stroke="black" points="636.09,-330.1 646.65,-330.9 638.89,-323.69 636.09,-330.1"/>
</g>
<!-- combat.magic_menu -->
<g id="node20" class="node">
<title>combat.magic_menu</title>
<polygon fill="none" stroke="black" points="934.96,-194 801.95,-194 801.95,-158 934.96,-158 934.96,-194"/>
<text text-anchor="middle" x="868.46" y="-171.8" font-family="Times New Roman,serif" font-size="14.00">combat.magic_menu</text>
</g>
<!-- combat.input_ui&#45;&gt;combat.magic_menu -->
<g id="edge30" class="edge">
<title>combat.input_ui&#45;&gt;combat.magic_menu</title>
<path fill="none" stroke="black" d="M569.56,-259.22C628.3,-242.81 723.66,-216.17 790.63,-197.46"/>
<polygon fill="black" stroke="black" points="791.39,-200.88 800.08,-194.82 789.51,-194.14 791.39,-200.88"/>
</g>
<!-- combat.magic_menu&#45;&gt;combat.models -->
<g id="edge54" class="edge">
<title>combat.magic_menu&#45;&gt;combat.models</title>
<path fill="none" stroke="black" d="M921.98,-194.31C927.67,-198.09 932.86,-202.61 936.91,-208 969.64,-251.62 1013.19,-634.86 1025.15,-745.32"/>
<polygon fill="black" stroke="black" points="1021.65,-745.49 1026.2,-755.06 1028.61,-744.74 1021.65,-745.49"/>
</g>
<!-- combat.magic_menu&#45;&gt;combat.constants -->
<g id="edge53" class="edge">
<title>combat.magic_menu&#45;&gt;combat.constants</title>
<path fill="none" stroke="black" d="M910.58,-194.4C919.38,-198.65 928.54,-203.3 936.91,-208 956,-218.73 976.44,-231.97 993.15,-243.28"/>
<polygon fill="black" stroke="black" points="991.03,-246.08 1001.26,-248.83 994.98,-240.3 991.03,-246.08"/>
</g>
<!-- combat.item_effects&#45;&gt;combat.enums -->
<g id="edge34" class="edge">
<title>combat.item_effects&#45;&gt;combat.enums</title>
<path fill="none" stroke="black" d="M756.63,-846.38C840.99,-861.29 989.52,-873.54 1085.72,-802 1142.72,-759.6 1160.99,-671.69 1166.75,-625.62"/>
<polygon fill="black" stroke="black" points="1170.21,-626.17 1167.85,-615.84 1163.25,-625.39 1170.21,-626.17"/>
</g>
<!-- combat.item_effects&#45;&gt;combat.models -->
<g id="edge35" class="edge">
<title>combat.item_effects&#45;&gt;combat.models</title>
<path fill="none" stroke="black" d="M756.67,-821.08C817.37,-810.78 907.65,-795.47 967.24,-785.36"/>
<polygon fill="black" stroke="black" points="967.59,-788.85 976.87,-783.73 966.42,-781.95 967.59,-788.85"/>
</g>
<!-- combat.item_effects&#45;&gt;combat.elements -->
<g id="edge33" class="edge">
<title>combat.item_effects&#45;&gt;combat.elements</title>
<path fill="none" stroke="black" d="M734.69,-813.6C758.72,-803.18 788.99,-790.04 814.56,-778.95"/>
<polygon fill="black" stroke="black" points="815.66,-782.28 823.45,-775.09 812.88,-775.86 815.66,-782.28"/>
</g>
<!-- combat.item_effects&#45;&gt;combat.status_effects -->
<g id="edge36" class="edge">
<title>combat.item_effects&#45;&gt;combat.status_effects</title>
<path fill="none" stroke="black" d="M752.08,-850.43C766.51,-854.88 782.07,-859.68 796.95,-864.26"/>
<polygon fill="black" stroke="black" points="795.6,-867.51 806.19,-867.11 797.66,-860.82 795.6,-867.51"/>
</g>
<!-- combat.status_effects&#45;&gt;combat.enums -->
<g id="edge72" class="edge">
<title>combat.status_effects&#45;&gt;combat.enums</title>
<path fill="none" stroke="black" d="M937.19,-893.37C984.06,-894.69 1045.08,-888.38 1085.72,-854 1154.73,-795.62 1167.27,-679.71 1169.22,-625.38"/>
<polygon fill="black" stroke="black" points="1172.71,-625.76 1169.46,-615.68 1165.71,-625.59 1172.71,-625.76"/>
</g>
<!-- combat.status_effects&#45;&gt;combat.models -->
<g id="edge73" class="edge">
<title>combat.status_effects&#45;&gt;combat.models</title>
<path fill="none" stroke="black" d="M895.69,-867.67C922.25,-849.11 963.49,-820.29 992.93,-799.72"/>
<polygon fill="black" stroke="black" points="994.61,-802.82 1000.8,-794.22 990.6,-797.08 994.61,-802.82"/>
</g>
<!-- combat.logging&#45;&gt;combat.enums -->
<g id="edge40" class="edge">
<title>combat.logging&#45;&gt;combat.enums</title>
<path fill="none" stroke="black" d="M920.69,-444.92C966.62,-454.63 1034.47,-473.33 1085.72,-506 1111.37,-522.36 1134.4,-548.43 1149.77,-568.31"/>
<polygon fill="black" stroke="black" points="1146.96,-570.4 1155.77,-576.3 1152.56,-566.2 1146.96,-570.4"/>
</g>
<!-- combat.magic_aoe&#45;&gt;combat.enums -->
<g id="edge42" class="edge">
<title>combat.magic_aoe&#45;&gt;combat.enums</title>
<path fill="none" stroke="black" d="M576.7,-612.75C590.45,-611.7 605,-610.7 618.56,-610 797.28,-600.72 1008.95,-597.53 1109.96,-596.48"/>
<polygon fill="black" stroke="black" points="1109.95,-599.98 1119.91,-596.38 1109.88,-592.98 1109.95,-599.98"/>
</g>
<!-- combat.magic_aoe&#45;&gt;combat.life_check -->
<g id="edge43" class="edge">
<title>combat.magic_aoe&#45;&gt;combat.life_check</title>
<path fill="none" stroke="black" d="M527.91,-599.95C545.73,-571.89 582.17,-516.62 618.56,-474 631.75,-458.55 647.83,-442.63 661.42,-429.88"/>
<polygon fill="black" stroke="black" points="663.44,-432.78 668.4,-423.42 658.68,-427.65 663.44,-432.78"/>
</g>
<!-- combat.magic_aoe&#45;&gt;combat.magic_damage -->
<g id="edge45" class="edge">
<title>combat.magic_aoe&#45;&gt;combat.magic_damage</title>
<path fill="none" stroke="black" d="M555.52,-599.57C564.45,-595.21 573.87,-590.52 582.56,-586 598.8,-577.55 602.19,-574.18 618.56,-566 624.64,-562.96 631.08,-559.89 637.5,-556.92"/>
<polygon fill="black" stroke="black" points="638.5,-560.31 646.14,-552.97 635.59,-553.94 638.5,-560.31"/>
</g>
<!-- combat.magic_aoe&#45;&gt;combat.models -->
<g id="edge46" class="edge">
<title>combat.magic_aoe&#45;&gt;combat.models</title>
<path fill="none" stroke="black" d="M576.76,-614.79C662.54,-612.93 822.37,-619.79 936.91,-686 964.51,-701.96 989.97,-728.11 1006.97,-747.95"/>
<polygon fill="black" stroke="black" points="1004.1,-749.96 1013.19,-755.4 1009.47,-745.48 1004.1,-749.96"/>
</g>
<!-- combat.magic_aoe&#45;&gt;combat.elements -->
<g id="edge41" class="edge">
<title>combat.magic_aoe&#45;&gt;combat.elements</title>
<path fill="none" stroke="black" d="M537.47,-636.43C557.11,-652.94 588.02,-676.68 618.56,-691 650.84,-706.14 739.67,-727.68 801.96,-741.74"/>
<polygon fill="black" stroke="black" points="800.87,-745.09 811.39,-743.86 802.4,-738.26 800.87,-745.09"/>
</g>
<!-- combat.magic_aoe&#45;&gt;combat.logging -->
<g id="edge44" class="edge">
<title>combat.magic_aoe&#45;&gt;combat.logging</title>
<path fill="none" stroke="black" d="M528.52,-599.76C545.53,-575.07 579.16,-531.32 618.56,-507 626.7,-501.97 734.26,-472.19 805.29,-452.83"/>
<polygon fill="black" stroke="black" points="806.17,-456.21 814.9,-450.21 804.33,-449.46 806.17,-456.21"/>
</g>
<!-- combat.magic_aoe&#45;&gt;combat.phys_damage -->
<g id="edge47" class="edge">
<title>combat.magic_aoe&#45;&gt;combat.phys_damage</title>
<path fill="none" stroke="black" d="M576.41,-633.83C587.56,-636.78 599.37,-639.91 611,-643"/>
<polygon fill="black" stroke="black" points="610.04,-646.36 620.61,-645.54 611.84,-639.6 610.04,-646.36"/>
</g>
<!-- combat.phys_damage&#45;&gt;combat.enums -->
<g id="edge63" class="edge">
<title>combat.phys_damage&#45;&gt;combat.enums</title>
<path fill="none" stroke="black" d="M760.38,-654.29C854.1,-640.93 1021.3,-617.1 1110.11,-604.44"/>
<polygon fill="black" stroke="black" points="1110.42,-607.94 1119.82,-603.06 1109.43,-601.01 1110.42,-607.94"/>
</g>
<!-- combat.phys_damage&#45;&gt;combat.models -->
<g id="edge64" class="edge">
<title>combat.phys_damage&#45;&gt;combat.models</title>
<path fill="none" stroke="black" d="M760.43,-678.13C810.17,-689.39 878.78,-706.92 936.91,-729 953.37,-735.25 970.79,-743.56 985.95,-751.39"/>
<polygon fill="black" stroke="black" points="984.23,-754.44 994.71,-756 987.49,-748.25 984.23,-754.44"/>
</g>
<!-- combat.phys_damage&#45;&gt;combat.elements -->
<g id="edge62" class="edge">
<title>combat.phys_damage&#45;&gt;combat.elements</title>
<path fill="none" stroke="black" d="M737.89,-682.35C746.75,-686.47 755.82,-691.09 764,-696 781.39,-706.43 782.75,-713.37 800,-724 804.78,-726.94 809.87,-729.8 815.03,-732.53"/>
<polygon fill="black" stroke="black" points="813.12,-735.48 823.62,-736.89 816.29,-729.24 813.12,-735.48"/>
</g>
<!-- combat.main -->
<g id="node26" class="node">
<title>combat.main</title>
<polygon fill="none" stroke="black" points="88.7,-1010 0,-1010 0,-974 88.7,-974 88.7,-1010"/>
<text text-anchor="middle" x="44.35" y="-987.8" font-family="Times New Roman,serif" font-size="14.00">combat.main</text>
</g>
<!-- combat.main&#45;&gt;combat.battle_sim -->
<g id="edge55" class="edge">
<title>combat.main&#45;&gt;combat.battle_sim</title>
<path fill="none" stroke="black" d="M88.97,-1006.55C98.03,-1009.58 107.76,-1012.82 117.41,-1016.04"/>
<polygon fill="black" stroke="black" points="116.2,-1019.33 126.8,-1019.18 118.42,-1012.69 116.2,-1019.33"/>
</g>
<!-- combat.main&#45;&gt;combat.runtime_state -->
<g id="edge61" class="edge">
<title>combat.main&#45;&gt;combat.runtime_state</title>
<path fill="none" stroke="black" d="M89.17,-993.63C196.58,-997.63 474.15,-1007.96 611.26,-1013.06"/>
<polygon fill="black" stroke="black" points="610.85,-1016.55 620.97,-1013.42 611.11,-1009.55 610.85,-1016.55"/>
</g>
<!-- combat.main&#45;&gt;combat.char_build -->
<g id="edge56" class="edge">
<title>combat.main&#45;&gt;combat.char_build</title>
<path fill="none" stroke="black" d="M58.75,-1010.34C72.89,-1028.03 96.95,-1053.72 124.7,-1065 229.42,-1107.55 363.35,-1099.3 443.88,-1088.39"/>
<polygon fill="black" stroke="black" points="443.97,-1091.92 453.38,-1087.06 442.99,-1084.99 443.97,-1091.92"/>
</g>
<!-- combat.main&#45;&gt;combat.debug_utils -->
<g id="edge57" class="edge">
<title>combat.main&#45;&gt;combat.debug_utils</title>
<path fill="none" stroke="black" d="M46.35,-973.58C51.92,-874.22 80.41,-405.14 124.7,-360 162.01,-321.97 223,-315.59 271.39,-317.82"/>
<polygon fill="black" stroke="black" points="271.07,-321.31 281.26,-318.42 271.49,-314.32 271.07,-321.31"/>
</g>
<!-- combat.main&#45;&gt;combat.enemy_build -->
<g id="edge58" class="edge">
<title>combat.main&#45;&gt;combat.enemy_build</title>
<path fill="none" stroke="black" d="M53.87,-1010.31C65.96,-1033.95 90.47,-1074.27 124.7,-1093 222.28,-1146.39 354.35,-1146.66 437,-1139.9"/>
<polygon fill="black" stroke="black" points="437.17,-1143.4 446.82,-1139.03 436.56,-1136.42 437.17,-1143.4"/>
</g>
<!-- combat.main&#45;&gt;combat.input_ui -->
<g id="edge59" class="edge">
<title>combat.main&#45;&gt;combat.input_ui</title>
<path fill="none" stroke="black" d="M48.93,-973.66C64.26,-899.15 130.53,-614.63 279.73,-439 325,-385.71 355.74,-395.48 412.76,-355 437.52,-337.41 464.38,-315.96 484.29,-299.56"/>
<polygon fill="black" stroke="black" points="486.29,-302.45 491.76,-293.37 481.83,-297.06 486.29,-302.45"/>
</g>
<!-- combat.main&#45;&gt;combat.magic_menu -->
<g id="edge60" class="edge">
<title>combat.main&#45;&gt;combat.magic_menu</title>
<path fill="none" stroke="black" d="M46.13,-973.57C50.39,-877.93 72.55,-437.69 124.7,-313 185.15,-168.46 188.57,-38 345.24,-38 345.24,-38 345.24,-38 516.66,-38 639.1,-38 769.93,-111.7 831.5,-151.38"/>
<polygon fill="black" stroke="black" points="829.57,-154.3 839.85,-156.85 833.4,-148.45 829.57,-154.3"/>
</g>
</g>
</svg>
